<mxfile host="app.diagrams.net" agent="Mozilla/5.0 (X11; Ubuntu; Linux x86_64; rv:141.0) Gecko/20100101 Firefox/141.0" version="28.0.7">
  <diagram name="Page-1" id="HjzerdOSm4FA8G-07vLM">
    <mxGraphModel dx="1937" dy="1160" grid="1" gridSize="10" guides="1" tooltips="1" connect="1" arrows="1" fold="1" page="1" pageScale="1" pageWidth="2339" pageHeight="3300" math="0" shadow="0">
      <root>
        <mxCell id="0" />
        <mxCell id="1" parent="0" />
        <mxCell id="q9tFJmXxhA_tZmQn3BfS-3" value="" style="shape=delay;whiteSpace=wrap;html=1;fillColor=#fff2cc;strokeColor=none;" vertex="1" parent="1">
          <mxGeometry x="340" y="380" width="1210" height="70" as="geometry" />
        </mxCell>
        <mxCell id="JBDGgaZIzzyNM44vKLD3-7" style="edgeStyle=orthogonalEdgeStyle;rounded=0;orthogonalLoop=1;jettySize=auto;html=1;exitX=0.5;exitY=1;exitDx=0;exitDy=0;entryX=0.5;entryY=0;entryDx=0;entryDy=0;" parent="1" source="JBDGgaZIzzyNM44vKLD3-2" target="JBDGgaZIzzyNM44vKLD3-21" edge="1">
          <mxGeometry relative="1" as="geometry">
            <mxPoint x="270" y="380" as="targetPoint" />
          </mxGeometry>
        </mxCell>
        <mxCell id="JBDGgaZIzzyNM44vKLD3-2" value="&lt;div&gt;&lt;font style=&quot;font-size: 18px;&quot; face=&quot;Times New Roman&quot;&gt;Chip wakes&lt;/font&gt;&lt;/div&gt;&lt;div&gt;&lt;font size=&quot;3&quot; face=&quot;Times New Roman&quot;&gt;up&lt;/font&gt;&lt;/div&gt;" style="ellipse;whiteSpace=wrap;html=1;aspect=fixed;" parent="1" vertex="1">
          <mxGeometry x="230" y="230" width="80" height="80" as="geometry" />
        </mxCell>
        <mxCell id="JBDGgaZIzzyNM44vKLD3-50" value="" style="edgeStyle=orthogonalEdgeStyle;rounded=0;orthogonalLoop=1;jettySize=auto;html=1;" parent="1" source="JBDGgaZIzzyNM44vKLD3-10" target="JBDGgaZIzzyNM44vKLD3-16" edge="1">
          <mxGeometry relative="1" as="geometry" />
        </mxCell>
        <mxCell id="JBDGgaZIzzyNM44vKLD3-10" value="&lt;font style=&quot;font-size: 18px;&quot; face=&quot;Times New Roman&quot;&gt;Reset from deep sleep&lt;/font&gt;" style="rounded=0;whiteSpace=wrap;html=1;fillColor=#fff2cc;strokeColor=#d6b656;" parent="1" vertex="1">
          <mxGeometry x="360" y="390" width="200" height="50" as="geometry" />
        </mxCell>
        <mxCell id="JBDGgaZIzzyNM44vKLD3-28" style="edgeStyle=orthogonalEdgeStyle;rounded=0;orthogonalLoop=1;jettySize=auto;html=1;exitX=1;exitY=0.5;exitDx=0;exitDy=0;entryX=0;entryY=0.5;entryDx=0;entryDy=0;" parent="1" source="JBDGgaZIzzyNM44vKLD3-11" target="JBDGgaZIzzyNM44vKLD3-22" edge="1">
          <mxGeometry relative="1" as="geometry" />
        </mxCell>
        <mxCell id="JBDGgaZIzzyNM44vKLD3-11" value="&lt;font style=&quot;font-size: 18px;&quot; face=&quot;Times New Roman&quot;&gt;Power-on/software SoC/watchdog SoC reset&lt;/font&gt;" style="rounded=0;whiteSpace=wrap;html=1;" parent="1" vertex="1">
          <mxGeometry x="360" y="540" width="200" height="50" as="geometry" />
        </mxCell>
        <mxCell id="JBDGgaZIzzyNM44vKLD3-12" value="&lt;font style=&quot;font-size: 18px;&quot; face=&quot;Times New Roman&quot;&gt;Software CPU/watchdog CPU reset&lt;/font&gt;" style="rounded=0;whiteSpace=wrap;html=1;" parent="1" vertex="1">
          <mxGeometry x="360" y="680" width="200" height="50" as="geometry" />
        </mxCell>
        <mxCell id="JBDGgaZIzzyNM44vKLD3-13" value="" style="endArrow=classic;html=1;rounded=0;entryX=0;entryY=0.5;entryDx=0;entryDy=0;exitX=1;exitY=0.5;exitDx=0;exitDy=0;" parent="1" source="JBDGgaZIzzyNM44vKLD3-21" target="JBDGgaZIzzyNM44vKLD3-10" edge="1">
          <mxGeometry width="50" height="50" relative="1" as="geometry">
            <mxPoint x="270" y="505" as="sourcePoint" />
            <mxPoint x="330" y="510" as="targetPoint" />
          </mxGeometry>
        </mxCell>
        <mxCell id="JBDGgaZIzzyNM44vKLD3-14" value="" style="endArrow=classic;html=1;rounded=0;entryX=0;entryY=0.5;entryDx=0;entryDy=0;" parent="1" edge="1">
          <mxGeometry width="50" height="50" relative="1" as="geometry">
            <mxPoint x="270" y="564.66" as="sourcePoint" />
            <mxPoint x="360" y="564.66" as="targetPoint" />
          </mxGeometry>
        </mxCell>
        <mxCell id="JBDGgaZIzzyNM44vKLD3-15" value="" style="endArrow=classic;html=1;rounded=0;entryX=0;entryY=0.5;entryDx=0;entryDy=0;" parent="1" source="JBDGgaZIzzyNM44vKLD3-21" target="JBDGgaZIzzyNM44vKLD3-12" edge="1">
          <mxGeometry width="50" height="50" relative="1" as="geometry">
            <mxPoint x="270" y="400" as="sourcePoint" />
            <mxPoint x="360" y="724.66" as="targetPoint" />
            <Array as="points">
              <mxPoint x="270" y="705" />
            </Array>
          </mxGeometry>
        </mxCell>
        <mxCell id="JBDGgaZIzzyNM44vKLD3-30" style="edgeStyle=orthogonalEdgeStyle;rounded=0;orthogonalLoop=1;jettySize=auto;html=1;exitX=0.5;exitY=1;exitDx=0;exitDy=0;entryX=0.5;entryY=0;entryDx=0;entryDy=0;" parent="1" source="JBDGgaZIzzyNM44vKLD3-16" target="JBDGgaZIzzyNM44vKLD3-22" edge="1">
          <mxGeometry relative="1" as="geometry" />
        </mxCell>
        <mxCell id="JBDGgaZIzzyNM44vKLD3-31" style="edgeStyle=orthogonalEdgeStyle;rounded=0;orthogonalLoop=1;jettySize=auto;html=1;exitX=1;exitY=0.5;exitDx=0;exitDy=0;entryX=0;entryY=0.5;entryDx=0;entryDy=0;" parent="1" source="JBDGgaZIzzyNM44vKLD3-16" target="JBDGgaZIzzyNM44vKLD3-19" edge="1">
          <mxGeometry relative="1" as="geometry" />
        </mxCell>
        <mxCell id="JBDGgaZIzzyNM44vKLD3-16" value="&lt;font style=&quot;font-size: 18px;&quot; face=&quot;Times New Roman&quot;&gt;CRC right&lt;/font&gt;" style="rhombus;whiteSpace=wrap;html=1;fillColor=#fff2cc;strokeColor=#d6b656;" parent="1" vertex="1">
          <mxGeometry x="600" y="375" width="160" height="80" as="geometry" />
        </mxCell>
        <mxCell id="JBDGgaZIzzyNM44vKLD3-71" style="edgeStyle=orthogonalEdgeStyle;rounded=0;orthogonalLoop=1;jettySize=auto;html=1;exitX=1;exitY=0.5;exitDx=0;exitDy=0;entryX=0;entryY=0.5;entryDx=0;entryDy=0;" parent="1" source="JBDGgaZIzzyNM44vKLD3-19" target="JBDGgaZIzzyNM44vKLD3-58" edge="1">
          <mxGeometry relative="1" as="geometry" />
        </mxCell>
        <mxCell id="JBDGgaZIzzyNM44vKLD3-19" value="&lt;font style=&quot;font-size: 18px;&quot; face=&quot;Times New Roman&quot;&gt;Jump to entry point of Deep sleep wake stub&lt;/font&gt;" style="rounded=0;whiteSpace=wrap;html=1;fillColor=#fff2cc;strokeColor=#d6b656;" parent="1" vertex="1">
          <mxGeometry x="820" y="390" width="200" height="50" as="geometry" />
        </mxCell>
        <mxCell id="JBDGgaZIzzyNM44vKLD3-21" value="&lt;font style=&quot;font-size: 18px;&quot; face=&quot;Times New Roman&quot;&gt;Reset reason&lt;/font&gt;" style="rounded=1;whiteSpace=wrap;html=1;" parent="1" vertex="1">
          <mxGeometry x="210" y="390" width="120" height="50" as="geometry" />
        </mxCell>
        <mxCell id="JBDGgaZIzzyNM44vKLD3-22" value="&lt;font style=&quot;font-size: 18px;&quot; face=&quot;Times New Roman&quot;&gt;Boot mode&lt;/font&gt;" style="rounded=1;whiteSpace=wrap;html=1;" parent="1" vertex="1">
          <mxGeometry x="610" y="540" width="140" height="50" as="geometry" />
        </mxCell>
        <mxCell id="JBDGgaZIzzyNM44vKLD3-24" value="&lt;font style=&quot;font-size: 18px;&quot; face=&quot;Times New Roman&quot;&gt;Download boot mode&lt;/font&gt;" style="rounded=0;whiteSpace=wrap;html=1;" parent="1" vertex="1">
          <mxGeometry x="820" y="540" width="200" height="50" as="geometry" />
        </mxCell>
        <mxCell id="JBDGgaZIzzyNM44vKLD3-26" value="" style="endArrow=classic;html=1;rounded=0;entryX=0;entryY=0.5;entryDx=0;entryDy=0;" parent="1" source="JBDGgaZIzzyNM44vKLD3-12" edge="1">
          <mxGeometry width="50" height="50" relative="1" as="geometry">
            <mxPoint x="610" y="734.58" as="sourcePoint" />
            <mxPoint x="820" y="705" as="targetPoint" />
          </mxGeometry>
        </mxCell>
        <mxCell id="JBDGgaZIzzyNM44vKLD3-37" style="edgeStyle=orthogonalEdgeStyle;rounded=0;orthogonalLoop=1;jettySize=auto;html=1;entryX=0.5;entryY=0;entryDx=0;entryDy=0;exitX=0.5;exitY=1;exitDx=0;exitDy=0;" parent="1" source="JBDGgaZIzzyNM44vKLD3-22" edge="1">
          <mxGeometry relative="1" as="geometry">
            <mxPoint x="920" y="680" as="targetPoint" />
            <mxPoint x="750" y="700" as="sourcePoint" />
            <Array as="points">
              <mxPoint x="750" y="650" />
              <mxPoint x="1030" y="650" />
            </Array>
          </mxGeometry>
        </mxCell>
        <mxCell id="JBDGgaZIzzyNM44vKLD3-38" value="&lt;font style=&quot;font-size: 18px;&quot; face=&quot;Times New Roman&quot;&gt;Yes&lt;/font&gt;" style="text;strokeColor=none;align=center;fillColor=none;html=1;verticalAlign=middle;whiteSpace=wrap;rounded=0;" parent="1" vertex="1">
          <mxGeometry x="750" y="410" width="60" height="30" as="geometry" />
        </mxCell>
        <mxCell id="JBDGgaZIzzyNM44vKLD3-39" value="&lt;font style=&quot;font-size: 18px;&quot; face=&quot;Times New Roman&quot;&gt;No&lt;/font&gt;" style="text;strokeColor=none;align=center;fillColor=none;html=1;verticalAlign=middle;whiteSpace=wrap;rounded=0;" parent="1" vertex="1">
          <mxGeometry x="665" y="455" width="60" height="30" as="geometry" />
        </mxCell>
        <mxCell id="JBDGgaZIzzyNM44vKLD3-40" value="&lt;font style=&quot;font-size: 18px;&quot; face=&quot;Times New Roman&quot;&gt;Wait for dowmloading from UART or USB&lt;/font&gt;" style="rounded=0;whiteSpace=wrap;html=1;" parent="1" vertex="1">
          <mxGeometry x="1110" y="540" width="420" height="50" as="geometry" />
        </mxCell>
        <mxCell id="JBDGgaZIzzyNM44vKLD3-51" style="edgeStyle=orthogonalEdgeStyle;rounded=0;orthogonalLoop=1;jettySize=auto;html=1;exitX=1;exitY=0.5;exitDx=0;exitDy=0;entryX=0;entryY=0.5;entryDx=0;entryDy=0;" parent="1" target="JBDGgaZIzzyNM44vKLD3-24" edge="1">
          <mxGeometry relative="1" as="geometry">
            <mxPoint x="750" y="564.8100000000001" as="sourcePoint" />
            <mxPoint x="830" y="564.8100000000001" as="targetPoint" />
          </mxGeometry>
        </mxCell>
        <mxCell id="JBDGgaZIzzyNM44vKLD3-52" value="" style="endArrow=classic;html=1;rounded=0;entryX=0;entryY=0.5;entryDx=0;entryDy=0;exitX=1;exitY=0.5;exitDx=0;exitDy=0;" parent="1" edge="1">
          <mxGeometry width="50" height="50" relative="1" as="geometry">
            <mxPoint x="1020" y="705" as="sourcePoint" />
            <mxPoint x="1110" y="705" as="targetPoint" />
          </mxGeometry>
        </mxCell>
        <mxCell id="JBDGgaZIzzyNM44vKLD3-53" value="" style="endArrow=classic;html=1;rounded=0;entryX=0;entryY=0.5;entryDx=0;entryDy=0;exitX=1;exitY=0.5;exitDx=0;exitDy=0;" parent="1" source="JBDGgaZIzzyNM44vKLD3-24" target="JBDGgaZIzzyNM44vKLD3-40" edge="1">
          <mxGeometry width="50" height="50" relative="1" as="geometry">
            <mxPoint x="1150" y="564.81" as="sourcePoint" />
            <mxPoint x="1210" y="565" as="targetPoint" />
          </mxGeometry>
        </mxCell>
        <mxCell id="JBDGgaZIzzyNM44vKLD3-58" value="&lt;font style=&quot;font-size: 18px;&quot; face=&quot;Times New Roman&quot;&gt;Deep sleep wake stub function&lt;/font&gt;" style="rounded=0;whiteSpace=wrap;html=1;fillColor=#fff2cc;strokeColor=#d6b656;" parent="1" vertex="1">
          <mxGeometry x="1110" y="390" width="420" height="50" as="geometry" />
        </mxCell>
        <mxCell id="JBDGgaZIzzyNM44vKLD3-66" style="edgeStyle=orthogonalEdgeStyle;rounded=0;orthogonalLoop=1;jettySize=auto;html=1;exitX=1;exitY=0.5;exitDx=0;exitDy=0;entryX=0;entryY=0.5;entryDx=0;entryDy=0;" parent="1" source="JBDGgaZIzzyNM44vKLD3-64" target="JBDGgaZIzzyNM44vKLD3-65" edge="1">
          <mxGeometry relative="1" as="geometry" />
        </mxCell>
        <mxCell id="JBDGgaZIzzyNM44vKLD3-64" value="&lt;font style=&quot;font-size: 18px;&quot; face=&quot;Times New Roman&quot;&gt;System initialization&lt;/font&gt;" style="rounded=0;whiteSpace=wrap;html=1;" parent="1" vertex="1">
          <mxGeometry x="1110" y="680" width="170" height="50" as="geometry" />
        </mxCell>
        <mxCell id="JBDGgaZIzzyNM44vKLD3-65" value="&lt;font style=&quot;font-size: 18px;&quot; face=&quot;Times New Roman&quot;&gt;app_main function&lt;/font&gt;" style="rounded=0;whiteSpace=wrap;html=1;" parent="1" vertex="1">
          <mxGeometry x="1360" y="680" width="170" height="50" as="geometry" />
        </mxCell>
        <mxCell id="q9tFJmXxhA_tZmQn3BfS-1" value="&lt;font style=&quot;font-size: 18px;&quot; face=&quot;Times New Roman&quot;&gt;SPI boot mode&lt;/font&gt;" style="rounded=0;whiteSpace=wrap;html=1;" vertex="1" parent="1">
          <mxGeometry x="820" y="680" width="200" height="50" as="geometry" />
        </mxCell>
      </root>
    </mxGraphModel>
  </diagram>
</mxfile>
